<?xml version="1.0" encoding="UTF-8"?>
<svg version="1.1" xmlns="http://www.w3.org/2000/svg" width="1080" height="1080">
<path d="M0 0 C0.78145889 -0.00701431 1.56291779 -0.01402863 2.36805725 -0.02125549 C4.90298167 -0.03880783 7.43767315 -0.04511509 9.97265625 -0.046875 C10.83318604 -0.04754974 11.69371582 -0.04822449 12.58032227 -0.04891968 C29.74829192 -0.02746573 45.98057538 0.66191234 62.09765625 7.0859375 C64.70428284 8.0772875 67.04846272 8.675007 69.78515625 9.140625 C74.17418137 10.0152205 77.36652081 12.04745152 81.1171875 14.42578125 C84.59541082 16.54437778 88.15185986 18.42889499 91.78515625 20.265625 C92.47005127 20.61278564 93.15494629 20.95994629 93.8605957 21.31762695 C98.24908287 23.48174893 102.59435161 25.08347668 107.28515625 26.515625 C115.33848864 29.21537383 120.20979293 34.28169122 126.03515625 40.203125 C129.80485517 43.75374322 133.53603525 46.56004809 138.03515625 49.140625 C146.49098158 54.1168974 150.66501264 59.94758737 155.40625 68.46484375 C157.24760841 71.5602688 159.3535112 73.81138753 162.03515625 76.203125 C165.46713107 80.09316627 167.68142847 84.1349838 169.91015625 88.765625 C170.61055965 90.19537003 171.31108153 91.62505703 172.01171875 93.0546875 C172.35364258 93.75754883 172.69556641 94.46041016 173.04785156 95.18457031 C174.43322475 98.01698019 175.86063741 100.82774262 177.28515625 103.640625 C179.68251995 108.43535241 181.92164908 113.2773593 184.03515625 118.203125 C184.53402344 119.25886719 185.03289062 120.31460938 185.546875 121.40234375 C187.32287176 125.56878689 187.96645434 129.74891839 188.66015625 134.203125 C190.3167313 144.09773307 192.54404496 153.80742548 194.87277222 163.55911255 C198.04934923 176.89808575 200.96114624 190.21769333 203.09765625 203.765625 C203.30124756 205.02294434 203.50483887 206.28026367 203.71459961 207.57568359 C205.23271402 217.72419314 205.82622634 227.82106472 204.28466797 238.0078125 C203.51211448 244.80507373 203.65866826 251.74776289 203.51757812 258.58203125 C203.36008692 264.32897459 203.16496931 269.61899406 201.52807617 275.13623047 C200.6357227 278.87801577 200.50538347 282.71559279 200.19946289 286.54199219 C199.20458177 298.48728213 197.08284378 308.2023268 191.9453125 318.99609375 C190.10022804 322.88164536 189.02127799 326.57792417 188.03515625 330.765625 C184.91681004 343.41526419 178.78214576 354.98512342 172.84765625 366.515625 C172.24219971 367.70720215 172.24219971 367.70720215 171.62451172 368.92285156 C169.23496416 373.4597694 166.72252284 376.59409397 163.03515625 380.203125 C160.9084333 383.12117807 158.9819916 386.16311211 157.03515625 389.203125 C155.86459352 390.9865391 154.69266643 392.76905826 153.51953125 394.55078125 C152.27407065 396.45529188 151.02930036 398.36025409 149.78515625 400.265625 C149.12765381 401.27061035 148.47015137 402.2755957 147.79272461 403.31103516 C144.39483413 408.52071825 141.05626333 413.75520696 137.82275391 419.06835938 C132.79658203 427.31376529 127.4402714 434.38805696 120.03515625 440.640625 C113.64440337 446.07026856 108.94026289 452.91388639 104.09765625 459.703125 C99.22828737 466.45340695 93.9916552 472.98732605 87.41015625 478.140625 C83.49271513 481.31447776 81.24904277 485.38183674 78.66015625 489.65234375 C76.77431042 492.61257771 74.64669003 494.86648951 72.03515625 497.203125 C70.36290616 498.86418947 68.69694252 500.53159218 67.03515625 502.203125 C63.70182292 505.53645833 60.36848958 508.86979167 57.03515625 512.203125 C56.21402344 513.03070312 55.39289063 513.85828125 54.546875 514.7109375 C47.21423103 521.98656247 39.66969605 528.52619542 31.03515625 534.203125 C29.49313796 535.2234271 27.95146163 536.24424626 26.41015625 537.265625 C25.683125 537.74515625 24.95609375 538.2246875 24.20703125 538.71875 C21.30416576 540.70272282 18.52826811 542.83506817 15.76171875 545.00390625 C9.78861917 549.15264284 1.86248659 548.46930355 -2.96484375 543.203125 C-8.97884796 535.54893782 -1.51676763 527.31011789 3.03515625 521.203125 C5.51020568 517.25851498 6.20934559 516.13741329 5.34765625 511.515625 C4.8915593 506.68099728 6.70729876 506.64574416 11.03515625 505.203125 C12.27265625 505.1103125 12.27265625 505.1103125 13.53515625 505.015625 C17.1368264 503.8450822 18.25955815 501.42558944 20.37109375 498.3828125 C22.53146411 495.55303161 25.04031031 493.44741815 27.8125 491.234375 C29.79981452 489.41820005 31.48095223 487.57470631 33.23046875 485.53515625 C37.23177523 480.89195462 41.58445296 476.66423336 45.97265625 472.390625 C51.73583495 466.7209158 56.827983 461.2357894 61.3125 454.50390625 C63.19542318 451.98907234 65.22186177 450.23795216 67.66015625 448.265625 C72.21690947 444.4839896 74.28002074 440.34807751 76.55078125 434.9375 C78.39625775 431.53793802 80.88655251 428.203125 85.03515625 428.203125 C85.16921875 427.34203125 85.30328125 426.4809375 85.44140625 425.59375 C87.05363044 416.38710135 94.60494975 408.25690867 100.8203125 401.6484375 C103.82240804 398.3339546 106.38537995 394.78944352 108.953125 391.1328125 C110.36603398 389.14466666 111.82948275 387.1916736 113.3359375 385.2734375 C119.82444345 376.90712781 124.25082029 367.91613479 128.69628906 358.32714844 C131.87821636 351.48982968 135.3339821 345.23448747 139.42578125 338.90234375 C142.01237942 334.56414148 143.53666893 330.00509573 145.03515625 325.203125 C145.69774845 323.16013239 146.36449497 321.11848298 147.03515625 319.078125 C147.36257813 318.07523438 147.69 317.07234375 148.02734375 316.0390625 C148.9332338 313.48993003 149.97652849 311.13175381 151.16015625 308.703125 C153.23734887 304.26695006 153.7873307 299.89326512 154.46875 295.07421875 C155.14870502 291.62755021 156.37803687 288.94141343 158.1328125 285.921875 C164.19252813 274.37955951 161.3253636 255.52009773 161.38525391 242.8581543 C161.40179806 240.30532709 161.42906728 237.7525459 161.46728516 235.19995117 C161.69394139 219.91051016 161.01964613 206.68065502 156.03515625 192.203125 C154.81858 187.96989701 153.79807082 183.8601949 153.76171875 179.43359375 C153.74383301 178.61294434 153.72594727 177.79229492 153.70751953 176.94677734 C153.69188965 176.10324707 153.67625977 175.2597168 153.66015625 174.390625 C153.43573718 167.74903365 152.94303873 162.02292797 150.16796875 155.8828125 C149.12724898 153.42097195 148.39068901 151.04726588 147.66015625 148.48046875 C146.16466463 143.38771351 144.15789953 138.69045768 141.91015625 133.890625 C138.14837837 125.72179223 134.56239246 117.49547442 131.13037109 109.18237305 C129.1562121 104.48698933 127.03533201 100.35494303 124.03515625 96.203125 C123.38675781 95.27371094 122.73835938 94.34429687 122.0703125 93.38671875 C118.66178476 88.64177816 115.38956483 84.13271324 111.03515625 80.203125 C110.390625 79.58953125 109.74609375 78.9759375 109.08203125 78.34375 C101.17646613 70.9910216 92.95489631 66.45339111 82.96875 62.484375 C80.15276457 61.25449055 77.68770883 59.84866894 75.09765625 58.203125 C70.30690015 55.18758435 65.33950971 53.26593482 60.015625 51.37890625 C57.03515625 50.203125 57.03515625 50.203125 54.5078125 48.65234375 C51.7648531 47.04470088 49.381801 46.39126828 46.28515625 45.703125 C42.70383437 44.89876394 39.337237 43.94558922 35.9074707 42.65942383 C31.06670158 41.03888964 26.81421098 40.86187122 21.75 41.05859375 C20.89064346 41.08029129 20.03128693 41.10198883 19.14588928 41.12434387 C17.33637558 41.17331113 15.52705657 41.23003684 13.71801758 41.29418945 C11.00426176 41.3895148 8.29078672 41.4595773 5.57617188 41.52539062 C-10.05158607 41.95580141 -25.12159169 43.7999793 -40.46484375 46.890625 C-41.75003906 47.14900146 -43.03523438 47.40737793 -44.359375 47.67358398 C-61.25358795 51.14242774 -77.88203897 55.95798392 -93.96484375 62.203125 C-94.93679688 62.57824219 -95.90875 62.95335937 -96.91015625 63.33984375 C-104.67164384 66.45478744 -112.12246318 70.15285517 -119.55566406 73.96972656 C-121.27370659 74.84929191 -122.99474824 75.72300939 -124.71777344 76.59277344 C-137.40518766 82.99786443 -149.69224219 89.33710411 -160.67578125 98.453125 C-162.96484375 100.203125 -162.96484375 100.203125 -164.96484375 100.203125 C-164.96484375 100.863125 -164.96484375 101.523125 -164.96484375 102.203125 C-166.34419085 103.39000506 -167.72768378 104.5742228 -169.1640625 105.69140625 C-171.57902632 107.71871861 -173.73702463 109.97205833 -175.96484375 112.203125 C-177.47145528 113.59867789 -178.99480208 114.97435632 -180.51928711 116.3503418 C-189.15577866 124.16566297 -197.32077918 132.18419656 -203.6015625 142.07421875 C-205.0034072 144.26334586 -206.48343016 146.36200153 -208.02734375 148.453125 C-208.47207031 149.05640625 -208.91679687 149.6596875 -209.375 150.28125 C-211.41833407 152.7513246 -213.69173048 154.94376733 -215.96484375 157.203125 C-223.08953912 164.96488255 -228.05201498 173.28321567 -233.02490234 182.49707031 C-234.11430418 184.47440539 -235.29338586 186.37548215 -236.52734375 188.265625 C-242.82481391 198.18956935 -247.63838611 208.41976824 -251.5859375 219.4609375 C-253.16329137 223.74168823 -255.01288107 227.8356239 -256.953125 231.9609375 C-258.05800908 234.28929605 -258.05800908 234.28929605 -258.90234375 237.203125 C-259.92430807 240.08867133 -261.17795425 242.17169127 -262.77734375 244.765625 C-266.29568046 250.997618 -267.69783967 257.47030665 -269.13989258 264.41430664 C-272.90570091 282.203125 -272.90570091 282.203125 -276.96484375 282.203125 C-276.96484375 284.06600716 -276.95592755 285.92918413 -276.91015625 287.79150391 C-277.02626248 292.91158127 -278.40874115 297.95016122 -279.54296875 302.92773438 C-282.96253172 319.769082 -280.88959434 337.61553095 -279.4206543 354.58105469 C-279.15024529 357.72754279 -278.89958907 360.87520608 -278.65039062 364.0234375 C-277.8028023 374.32662132 -276.79335827 384.22979184 -273.96484375 394.203125 C-273.73224854 395.06921387 -273.49965332 395.93530273 -273.26000977 396.82763672 C-272.57498157 399.35387522 -271.8657939 401.87228133 -271.15234375 404.390625 C-268.83280668 412.69503279 -266.83509069 421.03701376 -264.96484375 429.453125 C-262.44773061 440.69407896 -259.29861747 451.55878213 -255.15332031 462.30737305 C-253.81138803 465.79291671 -252.65010911 469.05557513 -252.08984375 472.765625 C-249.77042267 485.13587074 -244.60969828 496.8060414 -239.74316406 508.34667969 C-238.41244744 511.52069764 -237.14274493 514.71842202 -235.875 517.91796875 C-235.20452343 519.60135414 -234.52322188 521.28043787 -233.8359375 522.95703125 C-233.46597656 523.86324219 -233.09601563 524.76945313 -232.71484375 525.703125 C-232.3796875 526.5178125 -232.04453125 527.3325 -231.69921875 528.171875 C-230.96484375 530.203125 -230.96484375 530.203125 -230.96484375 532.203125 C-223.16515477 533.33731925 -208.55683533 534.48391933 -204.0703125 527.07421875 C-203.52825134 523.14766319 -203.86661272 519.16832007 -204.02490234 515.21875 C-203.90735986 509.31677927 -202.38594754 503.62714672 -201.08984375 497.890625 C-200.55064654 495.37037608 -200.01416069 492.84954546 -199.48046875 490.328125 C-199.22072266 489.11382813 -198.96097656 487.89953125 -198.69335938 486.6484375 C-196.15378124 474.63820739 -194.00265616 462.56746042 -192.02734375 450.453125 C-189.98961769 437.97116539 -187.56034845 425.58028109 -184.96484375 413.203125 C-184.81128418 412.46868164 -184.65772461 411.73423828 -184.49951172 410.97753906 C-183.45049008 406.02100473 -182.43254144 401.32094696 -180.47265625 396.63671875 C-178.3882077 391.20267541 -178.02112457 385.5832278 -177.46484375 379.828125 C-175.1847386 356.40778569 -175.1847386 356.40778569 -164.09765625 355.77734375 C-156.74551903 357.2450781 -155.84097888 362.96345055 -154.71484375 369.328125 C-154.39893401 370.95607922 -154.08130686 372.58370139 -153.76171875 374.2109375 C-153.63120117 374.92910645 -153.50068359 375.64727539 -153.36621094 376.38720703 C-153.02303026 378.28978579 -153.02303026 378.28978579 -151.96484375 380.203125 C-150.69912472 392.76418469 -153.48286981 402.60823309 -157.96484375 414.203125 C-158.52134691 415.68551757 -159.07606184 417.1685828 -159.62890625 418.65234375 C-160.39623403 420.71032523 -161.16666355 422.76614633 -161.95947266 424.81445312 C-164.27630742 430.82449175 -166.09395174 436.58719305 -166.5234375 443.015625 C-166.96484375 445.203125 -166.96484375 445.203125 -168.41015625 448.1328125 C-170.82505583 453.56723845 -170.89979573 459.47257137 -171.40234375 465.328125 C-172.26361112 474.25562682 -173.27226353 483.07951287 -174.96484375 491.890625 C-175.11880615 492.70740723 -175.27276855 493.52418945 -175.43139648 494.36572266 C-176.97032276 502.04200498 -179.45809117 509.25625689 -182.52734375 516.453125 C-184.04322835 520.02324574 -185.53680975 523.5968456 -186.96484375 527.203125 C-185.16974365 526.94861572 -185.16974365 526.94861572 -183.33837891 526.68896484 C-176.88202826 525.976309 -170.46998435 526.24307278 -163.98828125 526.4296875 C-162.65030166 526.46169742 -161.31229802 526.49271545 -159.97427368 526.52279663 C-154.33598265 526.65048178 -148.69806735 526.78903582 -143.06054688 526.94726562 C-139.59447337 527.04388866 -136.12831704 527.12505282 -132.66164017 527.1966362 C-130.71662446 527.24125065 -128.77202311 527.3028929 -126.82748413 527.36489868 C-120.21804725 527.49509785 -116.03917536 526.93592281 -109.96484375 524.203125 C-106.43653798 523.94161768 -102.96424058 524.18139923 -99.4375 524.40234375 C-97.40962472 524.47913523 -95.38162153 524.55260892 -93.35351562 524.62304688 C-90.16766242 524.747531 -86.98838092 524.893091 -83.80639648 525.09448242 C-72.08025136 526.72504929 -72.08025136 526.72504929 -63.6706543 521.24414062 C-63.62823411 517.50757266 -63.62823411 517.50757266 -64.41503906 513.81518555 C-65.04529701 509.67456992 -64.46758092 508.03607898 -62.65234375 504.328125 C-60.47776732 499.75272871 -59.42951988 495.73782161 -58.6796875 490.7265625 C-57.39845778 483.149207 -54.94597379 476.52748441 -51.69573975 469.54486084 C-50.20474455 466.33650457 -48.77607106 463.10033664 -47.33984375 459.8671875 C-47.05132538 459.22113556 -46.76280701 458.57508362 -46.46554565 457.90945435 C-43.71217497 451.71229426 -41.22134794 445.42744875 -38.83984375 439.078125 C-38.48647949 438.15064453 -38.13311523 437.22316406 -37.76904297 436.26757812 C-35.69022964 430.65772721 -34.10082015 425.04098455 -32.70654297 419.22509766 C-31.48719046 414.2569787 -30.03564261 409.35924813 -28.58984375 404.453125 C-28.28602783 403.41833008 -27.98221191 402.38353516 -27.66918945 401.31738281 C-20.58213674 377.26955896 -20.58213674 377.26955896 -17.96484375 372.203125 C-19.87330078 372.22052734 -19.87330078 372.22052734 -21.8203125 372.23828125 C-27.53566395 372.27608409 -33.24962006 372.25095884 -38.96484375 372.203125 C-39.94662598 372.19732422 -40.9284082 372.19152344 -41.93994141 372.18554688 C-44.78293888 372.15701705 -47.62276779 372.09189362 -50.46484375 372.015625 C-51.34164795 372.00990479 -52.21845215 372.00418457 -53.12182617 371.99829102 C-58.66144446 371.8029406 -61.59320927 371.02593407 -64.96484375 366.203125 C-57.96430758 352.53541153 -37.91002688 354.69012381 -24.94042969 354.3503418 C-21.97057628 354.26578821 -19.00365803 354.14390441 -16.03515625 354.02148438 C7.36329542 353.25621601 7.36329542 353.25621601 12.75 361.98046875 C13.68563159 375.25987156 5.93459827 386.25283565 -1.14697266 396.99658203 C-4.5188282 402.31540704 -5.57224479 408.1231555 -6.96484375 414.203125 C-10.56364892 428.99934665 -15.95543682 442.83724343 -21.64648438 456.92578125 C-29.99444876 477.67820235 -36.94816819 498.97445206 -43.96484375 520.203125 C-42.87945312 520.15671875 -41.7940625 520.1103125 -40.67578125 520.0625 C-39.23049644 520.02496013 -37.78518164 519.98856236 -36.33984375 519.953125 C-35.62699219 519.91960938 -34.91414063 519.88609375 -34.1796875 519.8515625 C-20.28781041 519.59666567 -18.24340421 530.53176221 -16.33984375 541.953125 C-17.17212647 546.28099514 -20.96889296 553.203125 -25.96484375 553.203125 C-25.96484375 553.863125 -25.96484375 554.523125 -25.96484375 555.203125 C-35.86047318 565.65143586 -44.42621881 570.27216377 -57.96484375 564.203125 C-58.62484375 563.543125 -59.28484375 562.883125 -59.96484375 562.203125 C-62.96079235 561.99046894 -65.84243831 561.92252265 -68.83984375 561.953125 C-70.23928223 561.96001343 -70.23928223 561.96001343 -71.66699219 561.96704102 C-81.52722964 562.08479614 -91.37018569 562.60523646 -101.21484375 563.140625 C-102.02854431 563.18401001 -102.84224487 563.22739502 -103.68060303 563.27209473 C-106.01008889 563.39838755 -108.33904716 563.53170189 -110.66796875 563.66796875 C-111.37537201 563.70657516 -112.08277527 563.74518158 -112.81161499 563.78495789 C-116.51198775 563.97698393 -116.51198775 563.97698393 -119.96484375 565.203125 C-121.39907708 565.28777947 -122.83722807 565.31033779 -124.27392578 565.30078125 C-125.17265411 565.29753342 -126.07138245 565.29428558 -126.99734497 565.29093933 C-127.97919769 565.2825856 -128.96105042 565.27423187 -129.97265625 565.265625 C-132.08072858 565.25677681 -134.18880153 565.24807508 -136.296875 565.23950195 C-137.40627441 565.23326813 -138.51567383 565.2270343 -139.65869141 565.22061157 C-181.88889625 563.18418805 -181.88889625 563.18418805 -222.9921875 570.28125 C-234.23126044 573.7666918 -247.64977544 571.9652209 -253.2421875 560.609375 C-254.09913261 558.6714809 -254.94810194 556.73004026 -255.7890625 554.78515625 C-257.42982017 551.1820306 -259.33072687 548.45594794 -262.48828125 546.03515625 C-272.70930867 538.14970297 -277.1581105 526.06858674 -281.24267578 514.26904297 C-282.45155987 510.81076805 -283.74052727 507.38299374 -285.02734375 503.953125 C-285.27540771 503.2837793 -285.52347168 502.61443359 -285.77905273 501.92480469 C-287.27091174 497.92880647 -288.9106149 494.03604852 -290.65234375 490.140625 C-292.4438982 485.89558549 -293.54834143 481.85093252 -294.39453125 477.32421875 C-294.64983775 475.99107685 -294.906305 474.65815683 -295.16381836 473.32543945 C-295.2947287 472.64405914 -295.42563904 471.96267883 -295.56051636 471.26065063 C-296.2125064 467.94282888 -296.92743795 464.6393452 -297.6484375 461.3359375 C-297.79065231 460.68346039 -297.93286713 460.03098328 -298.07939148 459.35873413 C-298.51885342 457.34819384 -298.96028223 455.33809523 -299.40234375 453.328125 C-299.55513794 452.63234344 -299.70793213 451.93656189 -299.86535645 451.21969604 C-303.78504398 432.13431261 -303.78504398 432.13431261 -309.18359375 413.44921875 C-314.68911444 397.62084678 -316.82980825 381.11429707 -317.65625 364.41015625 C-317.99660327 361.97598414 -318.83776684 360.37024584 -319.96484375 358.203125 C-322.11097585 344.68249274 -320.87874206 330.60838784 -320.33007812 316.98510742 C-320.25361238 315.01465658 -320.1838863 313.04393199 -320.12109375 311.07299805 C-319.72608981 298.74249734 -318.53528433 287.24173026 -315.48120117 275.28433228 C-314.6455153 271.91605393 -313.9570409 268.51899352 -313.25390625 265.12109375 C-312.6994077 262.54423017 -312.14472211 259.96740682 -311.58984375 257.390625 C-311.32429687 256.10220703 -311.05875 254.81378906 -310.78515625 253.48632812 C-309.10833685 245.80478742 -306.7832064 239.10760424 -303.32080078 232.05053711 C-301.64487692 228.5312177 -300.60808372 225.14996696 -299.58984375 221.390625 C-297.08376796 212.7727072 -293.19755682 205.08639548 -288.96484375 197.203125 C-288.14886719 195.65818359 -288.14886719 195.65818359 -287.31640625 194.08203125 C-284.63960522 189.06139713 -281.89680632 184.07888565 -279.140625 179.1015625 C-274.37544646 170.46779745 -269.6845874 161.86589047 -265.58984375 152.890625 C-257.96422335 136.203125 -257.96422335 136.203125 -253.96484375 136.203125 C-253.68640625 135.63722656 -253.40796875 135.07132813 -253.12109375 134.48828125 C-251.67138597 131.62314933 -249.77759856 129.85951801 -247.46484375 127.640625 C-244.93675222 125.2069265 -242.91811441 123.13303099 -240.96484375 120.203125 C-240.30484375 120.203125 -239.64484375 120.203125 -238.96484375 120.203125 C-238.60033687 118.73590824 -238.30117057 117.25243674 -238.02734375 115.765625 C-236.32653202 109.71073525 -232.99948035 107.24276317 -228.0859375 103.5625 C-224.74674306 101.03825289 -221.66744633 98.34667266 -218.58984375 95.515625 C-217.15511719 94.21044922 -217.15511719 94.21044922 -215.69140625 92.87890625 C-213.70952778 90.93393956 -212.00831686 89.08654439 -210.28125 86.94140625 C-207.83895678 84.05431089 -206.39108523 83.49954069 -202.96484375 82.203125 C-202.66191406 81.58179688 -202.35898437 80.96046875 -202.046875 80.3203125 C-200.78874051 77.85854754 -199.61166938 76.99181168 -197.33984375 75.453125 C-194.30391271 73.28382418 -191.72312432 71.03142003 -189.15234375 68.328125 C-177.37845379 56.203125 -177.37845379 56.203125 -171.96484375 56.203125 C-171.96484375 55.543125 -171.96484375 54.883125 -171.96484375 54.203125 C-169.94621834 52.8686234 -167.95531069 51.67915958 -165.83984375 50.515625 C-164.89020752 49.98606201 -164.89020752 49.98606201 -163.92138672 49.44580078 C-154.21809162 44.08124075 -144.4968465 39.24084721 -134.06689453 35.47216797 C-129.27501144 33.73207295 -124.6164334 31.78769257 -119.96484375 29.703125 C-114.08316551 27.07758052 -108.15542839 24.69235381 -102.10766602 22.47705078 C-98.54496197 21.17198334 -95.00427058 19.83111411 -91.484375 18.4140625 C-79.95231832 13.78081168 -68.52611353 10.26697521 -56.33203125 7.765625 C-53.85228435 7.2081939 -53.85228435 7.2081939 -51.03515625 6.265625 C-39.1017806 2.58549101 -27.07093904 2.08616722 -14.65942383 1.43676758 C-12.07873417 1.29477272 -12.07873417 1.29477272 -10.10205078 0.69116211 C-6.76620226 -0.07058808 -3.4053488 0.02012163 0 0 Z " fill="#05A0E7" transform="translate(553.96484375,287.796875)"/>
<path d="M0 0 C5.59412039 5.59412039 0.23777715 29.40159243 -0.4375 37.125 C-0.5048938 37.8961615 -0.5722876 38.667323 -0.64172363 39.46185303 C-1.06978184 44.31039085 -1.50895636 49.15737876 -2 54 C-2.06575226 54.74715271 -2.13150452 55.49430542 -2.19924927 56.26409912 C-2.39177007 58.18498382 -2.686578 60.09510396 -3 62 C-3.66 62 -4.32 62 -5 62 C-5.66622473 64.59725791 -5.66622473 64.59725791 -6.0625 67.75 C-6.94720217 73.80399502 -6.94720217 73.80399502 -7.50927734 75.890625 C-8.04968473 78.21357019 -8.20952414 80.38368084 -8.31640625 82.765625 C-8.35830078 83.65507813 -8.40019531 84.54453125 -8.44335938 85.4609375 C-8.48267578 86.38132812 -8.52199219 87.30171875 -8.5625 88.25 C-8.62727539 89.65378906 -8.62727539 89.65378906 -8.69335938 91.0859375 C-8.7991805 93.39048641 -8.90126557 95.69513839 -9 98 C-4.63961083 97.02337327 -0.27968156 96.0447262 4.07983398 95.06420898 C5.56278221 94.7309713 7.04585441 94.39828483 8.52905273 94.06616211 C10.66162468 93.58852882 12.79374209 93.10891138 14.92578125 92.62890625 C16.85031128 92.1968689 16.85031128 92.1968689 18.8137207 91.75610352 C21.99502027 91.05090644 21.99502027 91.05090644 25 90 C27.1649902 89.90514218 29.33293823 89.87011923 31.5 89.875 C32.6446875 89.87242187 33.789375 89.86984375 34.96875 89.8671875 C39.9875728 90.08708438 41.7143296 90.70482514 42.16796875 95.9375 C42.17441406 96.618125 42.18085937 97.29875 42.1875 98 C42.20167969 98.680625 42.21585938 99.36125 42.23046875 100.0625 C42 102 42 102 40 105 C39.54451115 106.48867089 39.13218814 107.99084682 38.75 109.5 C37.03371608 115.41643601 30.32289924 134 23 134 C22.67 134.825 22.34 135.65 22 136.5 C21 139 21 139 19 139 C18.3014403 140.65355271 17.64126088 142.32339429 17 144 C15.97223523 145.66774494 14.90665647 147.31253993 13.8125 148.9375 C11.07337882 153.15676741 8.71356351 157.42043134 6.5 161.9375 C0.09526572 175.00545559 -6.4823445 183.79311865 -17.28125 193.5 C-19.06545413 195.14064747 -20.81732052 196.81732052 -22.53125 198.53125 C-24.94893822 200.94893822 -27.44315326 203.23079851 -30 205.5 C-32.62818702 207.84867526 -35.19455655 210.19455655 -37.6875 212.6875 C-39.61176908 214.61176908 -41.54755088 216.48459257 -43.5625 218.3125 C-44.12066406 218.82425781 -44.67882812 219.33601562 -45.25390625 219.86328125 C-47 221 -47 221 -51 221 C-52.21255353 215.07196053 -49.69791456 210.50706689 -47.30078125 205.15234375 C-45.67370596 201.20925138 -44.68951142 197.24005508 -43.7734375 193.08203125 C-43 191 -43 191 -40 190 C-39.37368924 187.71739314 -39.37368924 187.71739314 -39 185 C-38.39218024 183.05024051 -37.74531902 181.11227664 -37.0625 179.1875 C-36.72347656 178.21167969 -36.38445312 177.23585938 -36.03515625 176.23046875 C-35 174 -35 174 -33 174 C-32.44412236 171.63647202 -32.44412236 171.63647202 -32.125 168.6875 C-31.3262152 163.28132446 -29.92659845 158.53711235 -27.90234375 153.47265625 C-26.9970259 150.9918502 -26.45086087 148.59826007 -26 146 C-34.25511586 146.25518132 -40.68749098 147.14979879 -48 151 C-55.90446917 154.58553241 -62.57750187 156.41879146 -71.25 156.5625 C-72.16007812 156.61212891 -73.07015625 156.66175781 -74.0078125 156.71289062 C-80.57728605 156.81523406 -80.57728605 156.81523406 -82.75 152.625 C-83.08529897 147.76316497 -81.53563706 147.13386012 -78 144 C-77.28856912 142.01548229 -76.61008664 140.01797888 -76 138 C-75.34 138 -74.68 138 -74 138 C-73.29316141 136.01384199 -72.63416617 134.01054165 -72 132 C-71.07060363 130.15182894 -70.1109445 128.31863337 -69.125 126.5 C-66.25491413 120.89218659 -64.54135485 115.33631898 -62.9375 109.26171875 C-61.91985292 105.72115495 -60.59019736 102.53766256 -58.9296875 99.2578125 C-57.84346397 96.79177969 -57.84346397 96.79177969 -57.109375 93.1796875 C-56.13213958 89.10771618 -54.43880426 85.62585794 -52.375 82 C-51.65437478 80.69243797 -50.93568792 79.38380616 -50.21875 78.07421875 C-49.85136719 77.40567871 -49.48398437 76.73713867 -49.10546875 76.04833984 C-47.28482937 72.67484947 -45.57864306 69.24617363 -43.875 65.8125 C-43.54467773 65.15056641 -43.21435547 64.48863281 -42.87402344 63.80664062 C-41.30506199 60.6562533 -39.75490158 57.49827509 -38.234375 54.32421875 C-37.70328125 53.22722656 -37.1721875 52.13023437 -36.625 51 C-36.16351563 50.030625 -35.70203125 49.06125 -35.2265625 48.0625 C-34 46 -34 46 -32 46 C-31.33852309 44.2586509 -31.33852309 44.2586509 -30.9375 42.125 C-29.609319 36 -29.609319 36 -27 36 C-26.30580437 34.34461042 -25.64896236 32.67363977 -25 31 C-22.7063699 26.25019908 -20.2481523 22.10112593 -16.625 18.25 C-12.59391976 13.8918365 -10.06551024 8.89923637 -7.3828125 3.66015625 C-5.27872369 -0.38754002 -4.4817662 -0.22408831 0 0 Z " fill="#FDF008" transform="translate(479,498)"/>
<path d="M0 0 C1.25167969 -0.02835938 2.50335937 -0.05671875 3.79296875 -0.0859375 C19.87858687 -0.11927557 33.17741385 5.04647079 38 21.5 C38.68376208 29.13166704 38.86978241 39.39538458 29.97265625 42.12109375 C26.17948624 42.91415523 22.36324346 43.44851667 18.52734375 43.9921875 C17.36332031 44.15976562 16.19929687 44.32734375 15 44.5 C13.906875 44.644375 12.81375 44.78875 11.6875 44.9375 C8.86218169 45.27298541 8.86218169 45.27298541 7 47.5 C5.35727445 47.96935016 3.71327409 48.43479357 2.0625 48.875 C-9.71927045 52.44523347 -32.23634226 64.97268453 -38 76.5 C-39.485 76.995 -39.485 76.995 -41 77.5 C-41.763125 78.263125 -42.52625 79.02625 -43.3125 79.8125 C-46.9104914 83.4104914 -50.44087561 85.88857867 -55.1875 87.75 C-59.64974675 89.55451297 -63.25067344 92.50050508 -67.078125 95.37109375 C-70.82835294 98.10354592 -74.73130292 100.53616065 -78.6875 102.95703125 C-81.00552006 104.39276945 -81.00552006 104.39276945 -82.6875 106.19921875 C-84 107.5 -84 107.5 -86 107.5 C-86.23074219 108.06847656 -86.46148438 108.63695312 -86.69921875 109.22265625 C-88.60075251 112.5517679 -91.60087711 114.0302901 -94.8125 115.9375 C-98.50827219 118.15032912 -101.62965275 120.11146606 -104.625 123.25390625 C-112.23920884 130.45484389 -128.33524749 123.36416986 -136 118.5 C-144.88718515 109.61281485 -139.28205497 94.99925085 -133 86.5 C-130.06914135 82.87952755 -127.54407263 81.19373242 -123.25 79.625 C-115.40741457 76.73808703 -109.76285379 71.40692513 -104 65.5 C-101.72625897 63.45614088 -99.43038434 61.43888526 -97.1328125 59.421875 C-95.48160187 57.93397092 -93.9097142 56.35779583 -92.375 54.75 C-90.01123246 52.51064128 -87.6223812 51.06435233 -84.7578125 49.5390625 C-82.94884141 48.46975959 -81.50073231 47.27454307 -79.9375 45.875 C-76.94848583 43.45835024 -74.5980208 42.67144863 -71 41.5 C-70.67 40.51 -70.34 39.52 -70 38.5 C-68.51171875 37.2890625 -68.51171875 37.2890625 -66.6875 36.125 C-64.21701251 34.46638642 -62.94170449 33.41758221 -61.1875 30.9375 C-58.37415891 27.80263421 -55.55045483 26.87994168 -51.6328125 25.4921875 C-45.72361287 23.26527844 -40.76929077 20.10857282 -35.6875 16.4375 C-35.05521484 15.99083984 -34.42292969 15.54417969 -33.77148438 15.08398438 C-30.36306465 12.77214301 -30.36306465 12.77214301 -28 9.5 C-27.34 9.5 -26.68 9.5 -26 9.5 C-25.9175 8.88125 -25.835 8.2625 -25.75 7.625 C-24.58032111 4.31090981 -22.23796763 4.43402912 -19 3.5 C-17.85917969 2.74299805 -17.85917969 2.74299805 -16.6953125 1.97070312 C-11.58489173 -0.81780908 -5.69640865 -0.01145007 0 0 Z " fill="#FDF008" transform="translate(910,223.5)"/>
<path d="M0 0 C3.76615901 2.01515923 7.62658868 3.82663046 11.5 5.625 C14 7 14 7 14 9 C15.31252882 9.70674629 16.65278717 10.36184656 18 11 C30 18.56521739 30 18.56521739 30 22 C30.66 22.2475 31.32 22.495 32 22.75 C36.13309086 24.47212119 42.46036644 27.35179828 43.421875 32.0703125 C44.30617758 35.02197111 46.19317881 35.01403448 49 36 C50.7389416 37.1205338 52.4475433 38.28935847 54.125 39.5 C55.39730469 40.41265625 55.39730469 40.41265625 56.6953125 41.34375 C57.45585937 41.8903125 58.21640625 42.436875 59 43 C60.485 43.99 60.485 43.99 62 45 C62 45.99 62 46.98 62 48 C63.65204456 48.70211894 65.31923769 49.36971413 67 50 C67 50.66 67 51.32 67 52 C69.39068734 53.10636395 69.39068734 53.10636395 72 54 C74 55 74 55 75 58 C76.6436814 59.68933922 78.3142876 61.35259924 80 63 C80.804375 63.99 81.60875 64.98 82.4375 66 C84.36831578 68.26046725 85.89939402 69.79088396 88.1875 71.5625 C91 74 91 74 92.0625 76.75 C92.74390386 79.29944097 92.74390386 79.29944097 95.26953125 79.296875 C99.12438652 80.28954159 100.26822359 82.35763145 102.625 85.5 C105.58973126 89.73217592 105.58973126 89.73217592 110 92 C110 92.66 110 93.32 110 94 C110.99 94.33 111.98 94.66 113 95 C118.71290429 101.15366249 120.56897458 107.74986862 120 116 C119.34 116 118.68 116 118 116 C117.71125 116.94875 117.4225 117.8975 117.125 118.875 C115.82377873 122.48950352 115.31445505 122.54992591 112 124 C110.79771678 126.00380537 109.99202601 128.01993498 109.125 130.1875 C106.61395928 134.23306561 101.27924833 133.24687971 97 133 C97 132.34 97 131.68 97 131 C96.29875 130.87625 95.5975 130.7525 94.875 130.625 C88.53495689 129.24672976 82.06899064 124.20697191 80 118 C77.93857344 116.74841959 75.90578009 115.96776687 73.625 115.1875 C70.84886074 113.93162748 68.87169889 112.27504497 66.5859375 110.28515625 C64.53713553 108.62492017 62.30394553 107.36409257 59.9921875 106.10546875 C56.74026264 104.30096927 53.59485939 102.31887496 50.4296875 100.3671875 C48.01974753 98.93674181 48.01974753 98.93674181 45.3515625 97.96484375 C42.11739879 96.6378696 40.36832692 94.54595144 38 92 C34.51672968 88.19792607 34.51672968 88.19792607 30 86 C29.67 85.01 29.34 84.02 29 83 C27.3663139 81.63169753 27.3663139 81.63169753 25.4375 80.4375 C22 78.21730382 22 78.21730382 22 76 C21.175 75.67 20.35 75.34 19.5 75 C17 74 17 74 17 72 C16.42636719 71.86851562 15.85273438 71.73703125 15.26171875 71.6015625 C12.34237977 70.82508892 11.00208345 69.44094577 8.8125 67.375 C3.43032845 62.43544124 -2.10239133 57.80417144 -8.3125 53.9375 C-11.65746322 51.52601489 -15 48.36703715 -15 44 C-16.485 43.505 -16.485 43.505 -18 43 C-18.33 42.01 -18.66 41.02 -19 40 C-19.45375 39.54625 -19.9075 39.0925 -20.375 38.625 C-22 37 -22 37 -23.3125 34.625 C-25.01923741 31.97007514 -26.86384761 30.38282255 -29.328125 28.44921875 C-31.9359082 26.18873378 -34.05164568 23.53922346 -36.25390625 20.890625 C-37.89781577 19.11064243 -39.40600862 18.03103456 -41.4375 16.75 C-46.50354957 11.31326387 -45.34710566 1.74939781 -41 -4 C-30.26403925 -15.18329244 -10.93070583 -7.28713722 0 0 Z " fill="#FDF007" transform="translate(114,314)"/>
<path d="M0 0 C0 0.66 0 1.32 0 2 C0.99 2.2475 0.99 2.2475 2 2.5 C4 3 4 3 4 5 C4.66 5 5.32 5 6 5 C6 5.66 6 6.32 6 7 C6.99 7.33 7.98 7.66 9 8 C16.90906496 20.17691158 17.54123606 30.37629183 13 44 C12.8453801 46.31070854 12.72528437 48.62379641 12.625 50.9375 C11.99401923 62.10464358 9.50726819 71.96866163 3.4375 81.4375 C1.37885403 85.10726021 0.24684745 88.99432341 -1 93 C-1.65358081 95.00431449 -2.32136945 97.0040278 -3 99 C-3.2990625 99.89332031 -3.598125 100.78664063 -3.90625 101.70703125 C-4.2465625 102.69058594 -4.586875 103.67414063 -4.9375 104.6875 C-5.41509766 106.08548828 -5.41509766 106.08548828 -5.90234375 107.51171875 C-7 110 -7 110 -8.53125 111.51171875 C-10.52937081 113.53641032 -10.87853934 115.38134067 -11.5625 118.125 C-11.93761719 119.59259766 -11.93761719 119.59259766 -12.3203125 121.08984375 C-12.91028924 123.6158936 -13.43311731 126.14346452 -13.9375 128.6875 C-14.74753018 132.51302068 -16.19620042 135.58291337 -18.0546875 139.00390625 C-19.07309367 141.15434241 -19.61136336 143.18048217 -20.125 145.5 C-21 149 -21 149 -23 149 C-23.74118205 151.31074405 -24.40206327 153.64811553 -25 156 C-26 159 -26 159 -28 159 C-28.29132812 159.598125 -28.58265625 160.19625 -28.8828125 160.8125 C-30.19699217 163.38571894 -31.51768301 164.36322141 -33.875 166 C-36.18361976 167.61515603 -37.99207049 168.99062412 -39.8203125 171.15234375 C-42.87309628 173.74009774 -45.04847412 173.56668594 -49 173.5625 C-50.216875 173.58441406 -51.43375 173.60632813 -52.6875 173.62890625 C-63.27750692 171.61830352 -62.42326425 159.32567424 -62 151 C-61.52270122 146.10070752 -60.84759389 141.24354039 -60.125 136.375 C-59.95097656 135.14265625 -59.77695312 133.9103125 -59.59765625 132.640625 C-59.08876132 129.08966928 -58.55208343 125.54447693 -58 122 C-57.83209961 120.8955957 -57.66419922 119.79119141 -57.49121094 118.65332031 C-57.3265332 117.64624023 -57.16185547 116.63916016 -56.9921875 115.6015625 C-56.84894043 114.71033691 -56.70569336 113.81911133 -56.55810547 112.90087891 C-56 111 -56 111 -54 111 C-53.59734403 109.05804571 -53.59734403 109.05804571 -53.5 106.625 C-52.9705732 98.28652784 -51.05224734 90.77051428 -48.0300293 83.00854492 C-44.26721887 73.29250593 -42.10790363 64.62936265 -42.21264648 54.1784668 C-42.25220913 48.81366362 -41.4694301 44.41608573 -39.74731445 39.32299805 C-38.98003378 36.93793577 -38.46315354 34.58565027 -38 32.125 C-37.24756353 28.18724913 -36.41625593 24.27825026 -35.5 20.375 C-35.2628125 19.35148437 -35.025625 18.32796875 -34.78125 17.2734375 C-34 15 -34 15 -32 15 C-31.7798837 13.19321201 -31.62694135 11.37821471 -31.5 9.5625 C-28.79856488 -8.22898284 -12.12732318 -9.9598867 0 0 Z " fill="#FDF00A" transform="translate(636,81)"/>
<path d="M0 0 C0.95648438 -0.00257813 1.91296875 -0.00515625 2.8984375 -0.0078125 C5.625 0.125 5.625 0.125 7.5 0.6015625 C11.34979592 1.54985782 15.36284543 1.52849778 19.3125 1.73046875 C24.4215611 2.02328055 24.4215611 2.02328055 26.625 3.125 C28.3657041 3.33212268 30.11188032 3.49420186 31.859375 3.6328125 C32.90867187 3.73335937 33.95796875 3.83390625 35.0390625 3.9375 C37.24546283 4.14418856 39.45398577 4.32945026 41.6640625 4.4921875 C49.95975314 5.34406771 54.97665976 7.56088434 57.45703125 15.93359375 C57.40075786 23.50799152 55.30961975 27.20769584 49.625 32.125 C48.98820313 32.68058594 48.35140625 33.23617187 47.6953125 33.80859375 C44.48783905 36.39131836 41.37656935 38.32933587 37.5625 39.875 C31.5611007 42.33630687 26.40310139 46.1370136 21.078125 49.78515625 C13.71337652 54.81104524 13.71337652 54.81104524 9.375 56.0625 C6.42431931 56.7602059 6.42431931 56.7602059 6.23046875 59.01953125 C5.37170335 62.00581867 3.89155309 62.47321888 1.1875 63.875 C0.38441406 64.30296875 -0.41867187 64.7309375 -1.24609375 65.171875 C-3.375 66.125 -3.375 66.125 -5.375 66.125 C-5.375 66.785 -5.375 67.445 -5.375 68.125 C-10.20311348 72.26644845 -13.94266506 74.44661675 -20.375 74.125 C-20.519375 74.74375 -20.66375 75.3625 -20.8125 76 C-21.75165625 79.54792361 -25.09735149 79.188529 -28.375 80.125 C-29.14883349 82.13537825 -29.14883349 82.13537825 -29.375 84.125 C-27.67730469 84.10759766 -27.67730469 84.10759766 -25.9453125 84.08984375 C-24.46354331 84.08046546 -22.98177235 84.0713653 -21.5 84.0625 C-20.75363281 84.05412109 -20.00726563 84.04574219 -19.23828125 84.03710938 C-13.6015625 84.01171875 -13.6015625 84.01171875 -11.375 85.125 C-9.34211417 85.14150642 -7.30852789 85.08868989 -5.27734375 85.00390625 C-4.01164551 84.95508301 -2.74594727 84.90625977 -1.44189453 84.85595703 C-0.76789612 84.8281012 -0.09389771 84.80024536 0.6005249 84.77154541 C4.11196589 84.63013476 7.62432502 84.51719807 11.13671875 84.40234375 C11.84733459 84.37897949 12.55795044 84.35561523 13.2901001 84.33154297 C14.7117626 84.28494037 16.13343409 84.23861143 17.55511475 84.19256592 C19.54412374 84.12763999 21.53305055 84.06021091 23.52197266 83.99267578 C27.01467426 83.88484492 30.50621897 83.81164737 34 83.75 C35.5934021 83.69307983 35.5934021 83.69307983 37.21899414 83.63500977 C38.18571045 83.62397217 39.15242676 83.61293457 40.1484375 83.6015625 C40.99325684 83.58174316 41.83807617 83.56192383 42.70849609 83.54150391 C45.74209056 84.46510783 45.51776934 86.18006638 45.625 89.125 C36.92346515 96.51626513 19.03785639 95.79184408 8.20629883 96.92749023 C-2.77344117 98.10446229 -13.64510066 99.78636743 -24.52783203 101.64624023 C-26.44845409 101.96919855 -28.37144971 102.27830636 -30.29638672 102.57446289 C-37.86962282 103.75789763 -45.2172221 105.47802326 -52.625 107.4375 C-54.39399658 107.89890381 -54.39399658 107.89890381 -56.19873047 108.36962891 C-62.69139769 110.08253864 -69.11717375 111.91632417 -75.5 114 C-80.86260508 115.72167847 -85.74397377 116.98596232 -91.375 117.125 C-92.36371094 117.16367187 -93.35242188 117.20234375 -94.37109375 117.2421875 C-104.83030337 117.47262296 -110.23590117 117.20118125 -112.375 106.125 C-112.6220998 102.29495308 -112.58428305 99.75284915 -111.375 96.125 C-110.715 96.125 -110.055 96.125 -109.375 96.125 C-109.375 95.465 -109.375 94.805 -109.375 94.125 C-106.87158203 93.50244141 -106.87158203 93.50244141 -103.3828125 92.9765625 C-101.48789062 92.67492187 -101.48789062 92.67492187 -99.5546875 92.3671875 C-96.89128054 91.95911596 -94.22687022 91.55802011 -91.5625 91.15625 C-84.79276005 90.07582686 -78.64387049 88.81078074 -72.36645508 86.01147461 C-70.375 85.125 -70.375 85.125 -66.9375 84.0625 C-64.33687053 83.31497249 -64.33687053 83.31497249 -62.75 81.5 C-61.375 80.125 -61.375 80.125 -57.375 80.125 C-57.375 79.465 -57.375 78.805 -57.375 78.125 C-55.328125 77.16015625 -55.328125 77.16015625 -52.625 76.1875 C-49.03330757 74.89049995 -46.37810511 73.46980441 -43.375 71.125 C-41.05162404 70.077203 -38.7320643 69.08904391 -36.375 68.125 C-25.95100762 63.67290034 -17.33073951 58.279633 -9.375 50.125 C-4.07519309 45.15349971 1.49513646 41.01223054 7.625 37.125 C8.36492187 36.63515625 9.10484375 36.1453125 9.8671875 35.640625 C10.92292969 34.95226562 10.92292969 34.95226562 12 34.25 C12.62648438 33.84007812 13.25296875 33.43015625 13.8984375 33.0078125 C15.625 32.125 15.625 32.125 18.625 32.125 C20.68047844 28.23040928 22.32823074 24.41117252 18.34375 21.40234375 C13.21493093 19.64065905 8.51307928 19.63615713 3.125 19.6875 C2.04637695 19.69289795 0.96775391 19.6982959 -0.14355469 19.70385742 C-7.25867784 19.83920525 -13.06682631 20.69872842 -19.7890625 23.0390625 C-26.77038054 25.15323071 -34.08829502 25.85745238 -41.30712891 26.79956055 C-43.38107996 27.08970598 -43.38107996 27.08970598 -45.39086914 27.65893555 C-47.47170091 28.14771466 -49.26071257 28.22010375 -51.39453125 28.1953125 C-61.58818845 28.27124888 -69.0034298 29.51930614 -77.98046875 34.43359375 C-85.33146473 38.09640302 -95.92081455 41.84502254 -101.9375 34.625 C-105.29362977 29.40538381 -105.33989419 25.01968258 -103.375 19.125 C-101.703125 17.80859375 -101.703125 17.80859375 -99.625 16.5625 C-98.94953125 16.14871094 -98.2740625 15.73492188 -97.578125 15.30859375 C-91.72642437 12.16486096 -86.98953301 11.82746332 -80.4375 11.6875 C-72.93981644 11.44055682 -66.07901959 10.62316004 -58.77734375 8.80859375 C-54.86518022 8.02256778 -51.10231971 7.82843778 -47.125 7.6875 C-41.41883347 7.46999276 -36.74389061 6.59492463 -31.5859375 4.0625 C-25.78182935 1.60139407 -19.16038342 1.82026049 -12.9453125 1.51953125 C-8.37612286 1.27139174 -4.57761931 -0.01227244 0 0 Z " fill="#F2EF12" transform="translate(431.375,875.875)"/>
<path d="M0 0 C1.10698242 0.00241699 1.10698242 0.00241699 2.23632812 0.00488281 C14.91123579 0.27535155 27.88980285 2.99263824 39.375 8.375 C40.63957031 8.83519531 40.63957031 8.83519531 41.9296875 9.3046875 C47.24816294 11.30947108 49.2355715 12.24014607 49.375 18.375 C50.035 18.375 50.695 18.375 51.375 18.375 C55.29512822 31.31142313 48.77452176 40.88634137 37.375 46.375 C27.33605128 49.57081886 14.73978576 48.52875402 4.33398438 48.55200195 C2.36248161 48.56185875 2.36248161 48.56185875 0.35115051 48.57191467 C-3.94297128 48.59261982 -8.23709219 48.6032758 -12.53125 48.61328125 C-14.02517208 48.61733955 -15.51909399 48.62145674 -17.01301575 48.62563133 C-24.02944451 48.64459862 -31.04586325 48.65885434 -38.0623126 48.6672433 C-46.10422794 48.67702442 -54.14586873 48.70340243 -62.1876874 48.74374419 C-68.44719799 48.77404752 -74.70663032 48.788725 -80.96621275 48.79202431 C-84.68616279 48.79435575 -88.40581665 48.80306615 -92.12568665 48.82848549 C-137.04138608 49.11951979 -137.04138608 49.11951979 -138.93359375 36.28125 C-139.13126395 29.86278247 -137.90362113 28.46492457 -132.625 25.375 C-131.965 24.715 -131.305 24.055 -130.625 23.375 C-127.48883426 22.74950434 -124.34972331 22.35519884 -121.1796875 21.9375 C-118.29946438 21.73930263 -118.29946438 21.73930263 -118.625 19.375 C-93.03661975 8.37112317 -62.5608245 6.57942953 -35.08178711 3.71850586 C-33.64696638 3.56890785 -32.2121518 3.4192508 -30.77734375 3.26953125 C-30.08538406 3.19769119 -29.39342438 3.12585114 -28.68049622 3.05183411 C-24.13730112 2.56885799 -19.62500632 1.9601286 -15.10546875 1.28515625 C-10.04741248 0.54299049 -5.11317857 -0.01242269 0 0 Z " fill="#FDF005" transform="translate(958.625,461.625)"/>
<path d="M0 0 C0.90105469 -0.01417969 1.80210937 -0.02835937 2.73046875 -0.04296875 C3.76107422 0.07111328 3.76107422 0.07111328 4.8125 0.1875 C4.8125 0.8475 4.8125 1.5075 4.8125 2.1875 C6.92891005 2.39231388 9.04572126 2.59357598 11.1640625 2.77734375 C15.67350388 3.47570857 19.65913007 5.36524332 23.8125 7.1875 C25.17761719 7.6825 25.17761719 7.6825 26.5703125 8.1875 C29.44537393 9.46975736 29.24323573 10.24630126 29.8125 13.1875 C30.8025 13.5175 31.7925 13.8475 32.8125 14.1875 C35.01432031 17.94894303 36.4482692 21.89190365 37.92578125 25.98046875 C38.93386684 28.48958047 40.13246223 30.848732 41.375 33.25 C44.10949496 38.61191632 45.8125 43.07846135 45.8125 49.1875 C46.4725 49.1875 47.1325 49.1875 47.8125 49.1875 C49.95900676 52.40726014 50.18625824 55.52320794 50.5625 59.3125 C51.54764875 66.90767909 53.81708929 73.76539526 56.375 80.9609375 C58.25623596 86.33483654 59.8125 91.4439195 59.8125 97.1875 C60.4725 97.1875 61.1325 97.1875 61.8125 97.1875 C64.0958982 101.40864438 64.96160935 105.41600078 64.8125 110.1875 C65.4725 110.1875 66.1325 110.1875 66.8125 110.1875 C67.28320312 112.05175781 67.28320312 112.05175781 67.59375 114.640625 C67.71363281 115.57003906 67.83351563 116.49945313 67.95703125 117.45703125 C68.07433594 118.44058594 68.19164062 119.42414063 68.3125 120.4375 C68.54547542 122.36018722 68.78483073 124.28211453 69.03125 126.203125 C69.13373047 127.06196289 69.23621094 127.92080078 69.34179688 128.80566406 C69.82288353 131.24004237 70.65903318 133.00714509 71.8125 135.1875 C72.078125 137.44140625 72.078125 137.44140625 72.0625 139.75 C72.07023437 140.89662109 72.07023437 140.89662109 72.078125 142.06640625 C71.59640491 145.91308282 70.72394917 147.1875 66.8125 147.1875 C66.52375 147.765 66.235 148.3425 65.9375 148.9375 C62.39684086 156.01881827 55.95738984 156.6282391 48.8125 155.1875 C43.35462104 152.36915689 33.8125 144.94897902 33.8125 138.1875 C32.8225 137.8575 31.8325 137.5275 30.8125 137.1875 C30.8125 136.5275 30.8125 135.8675 30.8125 135.1875 C30.1525 135.1875 29.4925 135.1875 28.8125 135.1875 C27.9609375 133.32421875 27.9609375 133.32421875 27.1875 130.875 C26.79691406 129.67423828 26.79691406 129.67423828 26.3984375 128.44921875 C25.8125 126.1875 25.8125 126.1875 25.8125 123.1875 C25.1525 123.1875 24.4925 123.1875 23.8125 123.1875 C22.7421875 121.5078125 22.7421875 121.5078125 21.6875 119.3125 C21.33429688 118.59320313 20.98109375 117.87390625 20.6171875 117.1328125 C19.8125 115.1875 19.8125 115.1875 19.8125 113.1875 C19.1525 113.1875 18.4925 113.1875 17.8125 113.1875 C16.55715393 110.72218182 15.44328936 108.29578883 14.375 105.75 C14.06079102 105.01950439 13.74658203 104.28900879 13.42285156 103.53637695 C11.79127358 99.69483766 10.30165018 95.86413589 9.0625 91.875 C7.85533739 88.31387029 7.33217354 87.60353658 4.8125 85.1875 C2.11800668 80.01407283 1.15411482 75.10959345 0.33984375 69.34765625 C0.10404606 66.86367633 0.10404606 66.86367633 -2.1875 67.1875 C-4.09098297 61.93723379 -4.65201975 56.78534702 -5.125 51.25 C-6.04802132 36.77733458 -6.04802132 36.77733458 -10.2265625 23.17578125 C-13.54885766 16.30160143 -13.80178288 6.64583058 -8.1875 1.1875 C-5.21347376 0.19615792 -3.10792649 0.02242371 0 0 Z " fill="#FDF009" transform="translate(309.1875,126.8125)"/>
<path d="M0 0 C1.02665771 0.13607666 2.05331543 0.27215332 3.11108398 0.41235352 C5.21504785 0.69382297 7.31849298 0.9791986 9.42138672 1.26855469 C12.36349962 1.66892469 15.30788885 2.04370603 18.25390625 2.4140625 C20.02361171 2.64973718 21.79315263 2.88665183 23.5625 3.125 C24.36429688 3.22272705 25.16609375 3.3204541 25.9921875 3.42114258 C36.86623599 4.96217309 43.10970688 10.40646535 44.125 21.6875 C43.81025194 26.97526739 40.73701433 30.70240676 37.5 34.6875 C36.95472656 35.38101563 36.40945313 36.07453125 35.84765625 36.7890625 C31.44846129 41.77545854 26.48435917 44.30982348 20.48706055 46.90722656 C12.88076092 50.25950437 6.27780491 54.92348345 -0.5 59.6875 C-1.68297531 60.51000477 -2.86655776 61.3316371 -4.05078125 62.15234375 C-4.61732422 62.54510498 -5.18386719 62.93786621 -5.76757812 63.3425293 C-6.31865234 63.72449463 -6.86972656 64.10645996 -7.4375 64.5 C-8.48550781 65.22703125 -9.53351563 65.9540625 -10.61328125 66.703125 C-20.77362205 73.6875 -20.77362205 73.6875 -24.5 73.6875 C-25.056875 74.3475 -25.61375 75.0075 -26.1875 75.6875 C-28.85269266 77.99253149 -29.39284975 77.8980225 -32.75 77.75 C-34.60625 77.7190625 -34.60625 77.7190625 -36.5 77.6875 C-36.5 78.6775 -36.5 79.6675 -36.5 80.6875 C-38.5 79.6875 -38.5 79.6875 -37.5 76.6875 C-35.17190457 76.00276605 -32.83762223 75.33896849 -30.5 74.6875 C-28.47681922 73.38961044 -26.47133986 72.06285339 -24.5 70.6875 C-23.84 70.6875 -23.18 70.6875 -22.5 70.6875 C-22.5 70.0275 -22.5 69.3675 -22.5 68.6875 C-19.73468925 67.0520032 -16.87771793 65.65772696 -14.00390625 64.22265625 C-11.20547601 62.87640794 -11.20547601 62.87640794 -10.5 59.6875 C-8.5201901 58.6480998 -6.51418 57.6586225 -4.5 56.6875 C-0.44984018 54.14214264 3.47702754 51.40399488 7.39453125 48.66015625 C12.0080013 45.47988229 16.2306267 42.60671768 21.5625 40.8125 C30.86391895 37.49056466 38.60369697 30.12212833 38.8125 20.1875 C38.84988281 19.0221875 38.88726562 17.856875 38.92578125 16.65625 C38.39770345 12.97423966 37.80080297 12.94975735 34.5 11.6875 C34.17 10.6975 33.84 9.7075 33.5 8.6875 C31.61055216 8.39545613 31.61055216 8.39545613 29.3125 8.625 C22.45288339 8.8433959 13.72887567 8.80193783 7.5 5.6875 C5.03779216 5.47991339 2.59139397 5.31362242 0.125 5.1875 C-3.86106545 4.9813242 -7.624067 4.67263297 -11.5 3.6875 C-13.37324188 3.59625326 -15.24954391 3.55744486 -17.125 3.5625 C-18.08664062 3.55992187 -19.04828125 3.55734375 -20.0390625 3.5546875 C-22.50474769 3.52388917 -22.50474769 3.52388917 -24.5 4.6875 C-27.04466008 4.87092515 -29.57727549 5.01185714 -32.125 5.125 C-39.28853982 5.51363314 -45.35096069 6.28167888 -52 9.25 C-56.62256195 11.07183324 -61.34569159 11.07443144 -66.2434082 11.27368164 C-70.72290098 11.48699082 -74.815693 12.10366704 -79.1875 13.1875 C-85.27049304 14.65412289 -91.03102261 14.92334624 -97.25 15.0625 C-105.14449392 15.26418671 -110.80140085 16.24179294 -117.5 20.6875 C-118.49 21.0175 -119.48 21.3475 -120.5 21.6875 C-121.85263137 28.20267441 -121.27753802 35.59732706 -115.5 39.6875 C-107.01602542 41.94209954 -97.86223292 37.41128187 -90.5625 33.5625 C-84.16339399 30.49845747 -78.67873177 30.10162771 -71.72753906 29.94433594 C-64.40916693 29.77251582 -57.6502418 28.62234299 -50.49560547 27.09912109 C-48.38882945 26.66456954 -46.27748119 26.2742253 -44.16015625 25.89453125 C-43.08447388 25.70093018 -43.08447388 25.70093018 -41.98706055 25.50341797 C-41.29008057 25.37854004 -40.59310059 25.25366211 -39.875 25.125 C-34.73451702 24.20947776 -34.73451702 24.20947776 -29.78125 22.625 C-24.75981272 21.19030363 -19.82208221 21.27848583 -14.625 21.25 C-13.57441406 21.21712891 -12.52382813 21.18425781 -11.44140625 21.15039062 C-4.88545462 21.10526205 0.73361494 21.74481656 5.5 26.6875 C5.125 29.3125 5.125 29.3125 3.5 31.6875 C2.84 32.6775 2.18 33.6675 1.5 34.6875 C-0.6015625 35.86328125 -0.6015625 35.86328125 -3.125 37 C-8.10073273 39.39149278 -12.20366703 42.25210535 -16.5 45.6875 C-17.64855469 46.55955078 -17.64855469 46.55955078 -18.8203125 47.44921875 C-23.01468313 50.63998585 -26.8165816 53.90714954 -30.5 57.6875 C-34.58698346 61.50266508 -38.3910995 64.31126721 -43.5 66.6875 C-44.16 67.3475 -44.82 68.0075 -45.5 68.6875 C-47.02132472 69.36050239 -48.56718203 69.97892113 -50.125 70.5625 C-55.50616222 72.65001983 -60.56525931 75.14345625 -65.66796875 77.828125 C-66.37566406 78.19421875 -67.08335937 78.5603125 -67.8125 78.9375 C-68.44800781 79.27265625 -69.08351563 79.6078125 -69.73828125 79.953125 C-71.5 80.6875 -71.5 80.6875 -74.5 80.6875 C-74.5 81.3475 -74.5 82.0075 -74.5 82.6875 C-75.9540625 82.9040625 -75.9540625 82.9040625 -77.4375 83.125 C-80.85426691 83.29038782 -80.85426691 83.29038782 -81.5 86.6875 C-84.01258504 87.70310096 -86.41353419 88.54367897 -89 89.3125 C-93.60753257 90.39122278 -93.60753257 90.39122278 -97.5 92.6875 C-115.16691123 95.24289252 -115.16691123 95.24289252 -120.5 91.6875 C-119.654375 91.56632813 -118.80875 91.44515625 -117.9375 91.3203125 C-107.99291297 89.85122578 -98.92151165 87.5649844 -89.35546875 84.4921875 C-86.5 83.6875 -86.5 83.6875 -83.5 83.6875 C-83.005 82.2025 -83.005 82.2025 -82.5 80.6875 C-80.26293945 79.54907227 -80.26293945 79.54907227 -77.30078125 78.44140625 C-70.17317535 75.62307385 -63.46609068 72.19009259 -56.6875 68.625 C-55.50086898 68.00674298 -54.31402062 67.38890294 -53.12695312 66.77148438 C-49.91006388 65.09129095 -46.70366526 63.39273335 -43.5 61.6875 C-42.78046143 61.31592773 -42.06092285 60.94435547 -41.31958008 60.56152344 C-36.41792957 57.94106427 -33.19381149 54.60078434 -29.41992188 50.578125 C-26.91966971 47.96730534 -24.77214651 46.18924303 -21.5 44.6875 C-20.47867408 43.70929074 -19.47964998 42.70744407 -18.5 41.6875 C-17.07536325 40.56678576 -15.63669423 39.46377287 -14.1875 38.375 C-11.27658625 36.14677612 -8.60394455 33.8916 -6.0625 31.25 C-3.5 28.6875 -3.5 28.6875 -1.5 28.6875 C-3.06943946 25.54862108 -5.04435093 26.42871111 -8.3984375 26.421875 C-9.59984375 26.41929687 -10.80125 26.41671875 -12.0390625 26.4140625 C-13.30492187 26.42179688 -14.57078125 26.42953125 -15.875 26.4375 C-17.133125 26.42976562 -18.39125 26.42203125 -19.6875 26.4140625 C-21.49347656 26.41792969 -21.49347656 26.41792969 -23.3359375 26.421875 C-24.44501465 26.42413086 -25.5540918 26.42638672 -26.69677734 26.42871094 C-29.70799065 26.48248151 -29.70799065 26.48248151 -32.5 28.6875 C-34.98105581 29.25770436 -37.41539193 29.74023686 -39.921875 30.16015625 C-41.02743744 30.3521183 -41.02743744 30.3521183 -42.15533447 30.54795837 C-43.72159811 30.81784771 -45.28849654 31.08407474 -46.85595703 31.34692383 C-49.20157558 31.74184696 -51.54409229 32.15220045 -53.88671875 32.56445312 C-62.40177197 34.0302316 -70.73860703 35.05473614 -79.37817383 35.34619141 C-83.47108532 35.79366855 -86.25377475 37.31792046 -89.76953125 39.34375 C-93.29062584 41.07659197 -96.82884586 42.04779618 -100.625 43 C-101.28234131 43.17120361 -101.93968262 43.34240723 -102.61694336 43.51879883 C-109.78701848 45.24209022 -115.95116441 46.67333856 -120.9375 40.3125 C-121.59621094 39.50039063 -122.25492187 38.68828125 -122.93359375 37.8515625 C-127.14669723 32.03096567 -126.703494 24.46730424 -122.5 18.6875 C-118.99591429 15.92803251 -116.03930559 13.6875 -111.5 13.6875 C-111.5 13.0275 -111.5 12.3675 -111.5 11.6875 C-108.59708087 10.71986029 -106.62365832 10.53754692 -103.59765625 10.4765625 C-102.14758179 10.43692383 -102.14758179 10.43692383 -100.66821289 10.39648438 C-99.13088501 10.35491211 -99.13088501 10.35491211 -97.5625 10.3125 C-90.18109362 10.062687 -83.50081044 9.53658996 -76.40234375 7.37890625 C-71.38864211 6.18452511 -66.3008309 6.16326669 -61.1640625 5.99609375 C-56.18480805 5.57673223 -52.65049427 4.45449618 -48.5 1.6875 C-46.61816406 1.29272461 -46.61816406 1.29272461 -44.515625 1.08984375 C-43.74476563 1.01056641 -42.97390625 0.93128906 -42.1796875 0.84960938 C-41.37789063 0.77548828 -40.57609375 0.70136719 -39.75 0.625 C-38.1717732 0.46847095 -36.59364618 0.31093226 -35.015625 0.15234375 C-33.85450195 0.03995361 -33.85450195 0.03995361 -32.66992188 -0.07470703 C-30.82913352 -0.27643159 -28.99813883 -0.56457294 -27.171875 -0.87109375 C-18.03911139 -1.96896852 -9.07677315 -1.23694989 0 0 Z " fill="#249BBF" transform="translate(448.5,873.3125)"/>
<path d="M0 0 C1.26714844 -0.00257813 2.53429687 -0.00515625 3.83984375 -0.0078125 C7.0625 0.125 7.0625 0.125 9.0625 1.125 C10.60701234 1.33271401 12.15819165 1.49217011 13.7109375 1.625 C14.63390625 1.7075 15.556875 1.79 16.5078125 1.875 C17.47460938 1.9575 18.44140625 2.04 19.4375 2.125 C21.3413967 2.28877606 23.24505617 2.45533927 25.1484375 2.625 C25.9945459 2.6971875 26.8406543 2.769375 27.71240234 2.84375 C29.90611558 3.10628456 31.92459574 3.58576844 34.0625 4.125 C36.33268044 4.22454506 38.60368299 4.30609764 40.875 4.375 C50.23684693 5.00755723 57.15438351 8.51952441 58.375 18.7421875 C58.69634777 26.15327046 57.52007089 30.81995274 51.0625 35.125 C45.89389347 35.125 46.52213303 29.79985159 45.515625 25.359375 C41.61258997 16.67197445 31.41421797 16.98499533 23.0625 16 C21.7619165 15.83532227 20.46133301 15.67064453 19.12133789 15.50097656 C16.56612114 15.1777542 14.01022458 14.85985154 11.45361328 14.54785156 C8.71152215 14.20592918 5.97899564 13.83703884 3.24609375 13.4296875 C-7.75974127 11.80004352 -17.71316182 11.72398652 -28.68359375 13.625 C-32.90561877 14.27376255 -37.11378563 14.50419248 -41.37890625 14.68359375 C-44.35124379 15.1963787 -45.58404278 16.30281827 -47.9375 18.125 C-53.25561185 19.67573587 -58.94262602 19.44134766 -64.44140625 19.6484375 C-67.98940413 19.90406512 -71.20873595 20.68118121 -74.63671875 21.62109375 C-81.16805905 23.33967749 -87.45903692 23.67348217 -94.1875 23.8125 C-95.89486328 23.86374023 -95.89486328 23.86374023 -97.63671875 23.91601562 C-100.40354702 23.99739293 -103.1701023 24.06689107 -105.9375 24.125 C-99.55752629 13.08303952 -88.94308152 12.14519109 -77.16113281 11.58886719 C-69.93182947 11.18780094 -62.98943951 9.69247809 -56.07421875 7.546875 C-53.46704367 7.03211283 -50.90210858 6.99735333 -48.2512207 6.93530273 C-39.18834264 6.6925383 -30.85840924 5.20375049 -22.10766602 2.85253906 C-17.18795191 1.54949251 -13.01996704 0.97016988 -7.9375 1.125 C-6.00979324 -0.80270676 -2.55339815 -0.00518456 0 0 Z " fill="#153087" transform="translate(443.9375,860.875)"/>
<path d="M0 0 C2.6902289 0 3.24175974 1.08191972 5 3 C5.33 2.34 5.66 1.68 6 1 C5.06639119 17.33815423 -27.01696726 16.95853812 -38.5859375 18.29980469 C-71.74389823 21.93594556 -71.74389823 21.93594556 -103.90625 30.31005859 C-108.38878322 31.78716201 -112.94941425 33.00248856 -117.5 34.25 C-118.88155273 34.6375647 -118.88155273 34.6375647 -120.29101562 35.03295898 C-130.15064377 37.73069276 -152.35306592 43.46270921 -158.44140625 32.375 C-161.52505218 23.77947126 -163.95875115 12.90368967 -154.4375 7.5625 C-152 7 -152 7 -149 7 C-148.67 6.34 -148.34 5.68 -148 5 C-148 5.66 -148 6.32 -148 7 C-144.97159499 7.12317917 -142.02490792 7.13744141 -139 7.0625 C-135.99610136 7.00161016 -133.00530777 6.97912981 -130 7 C-130 9.16130188 -136.5670759 9.22908439 -138.625 9.5625 C-139.83736328 9.77036133 -139.83736328 9.77036133 -141.07421875 9.98242188 C-144.6561299 10.57358282 -147.94276485 11.00056113 -151.5859375 10.96484375 C-152.38257813 10.97644531 -153.17921875 10.98804688 -154 11 C-154 11.66 -154 12.32 -154 13 C-154.66 13 -155.32 13 -156 13 C-156.79748658 18.61758932 -157.54744988 30.41298295 -151.625 33.0625 C-149.830625 33.0315625 -149.830625 33.0315625 -148 33 C-147.12859375 33.03351562 -146.2571875 33.06703125 -145.359375 33.1015625 C-135.84643359 33.37549537 -127.02505082 32.04294178 -117.96875 29.1484375 C-111.17227082 27.02559315 -104.32945557 25.16019422 -97.4375 23.375 C-96.30892578 23.0759375 -95.18035156 22.776875 -94.01757812 22.46875 C-86.71582695 20.57088253 -79.4591281 19.1132691 -72 18 C-70.73438232 17.80583496 -69.46876465 17.61166992 -68.16479492 17.41162109 C-63.90355813 16.76054271 -59.63964367 16.12832425 -55.375 15.5 C-54.24798676 15.33325775 -54.24798676 15.33325775 -53.09820557 15.16314697 C-44.70501473 13.9243532 -36.31811832 12.72588687 -27.875 11.875 C-10.60570864 11.17964786 -10.60570864 11.17964786 0.125 2.875 C0.08375 1.92625 0.0425 0.9775 0 0 Z " fill="#2FA2B5" transform="translate(476,959)"/>
<path d="M0 0 C1.16808701 -0.00630432 2.33617401 -0.01260864 3.53965759 -0.019104 C4.8021785 -0.01505554 6.0646994 -0.01100708 7.36547852 -0.00683594 C8.66131363 -0.00874939 9.95714874 -0.01066284 11.29225159 -0.01263428 C14.03521491 -0.01558238 16.77804793 -0.0112988 19.52099609 -0.00195312 C23.03272368 0.00943011 26.54414517 0.00288735 30.05586147 -0.00909805 C33.4090915 -0.01807496 36.76223979 -0.01178373 40.11547852 -0.00683594 C41.37597519 -0.0108844 42.63647186 -0.01493286 43.93516541 -0.019104 C45.10640457 -0.01279968 46.27764374 -0.00649536 47.484375 0 C48.5145726 0.00159119 49.5447702 0.00318237 50.60618591 0.00482178 C57.19416411 0.62433955 57.19416411 0.62433955 57.43188477 4.07128906 C53.95873414 10.82463751 48.59760272 12.38643696 41.65844727 12.32128906 C40.25919653 12.31289397 38.85994519 12.3045975 37.46069336 12.29638672 C36.72195984 12.29020325 35.98322632 12.28401978 35.22210693 12.27764893 C21.86764181 12.16767558 8.58165781 12.32154155 -4.75708008 13.07910156 C-10.87050971 13.37528589 -15.8444507 13.11393447 -21.69311523 11.25878906 C-19.54296641 8.03356582 -18.63157146 7.52816743 -15.19311523 6.07128906 C-14.00202148 5.55501953 -14.00202148 5.55501953 -12.78686523 5.02832031 C-10.69311523 4.25878906 -10.69311523 4.25878906 -8.69311523 4.25878906 C-8.69311523 3.59878906 -8.69311523 2.93878906 -8.69311523 2.25878906 C-5.26835944 -0.02438147 -4.02613028 0.00622335 0 0 Z " fill="#132F87" transform="translate(434.693115234375,944.7412109375)"/>
<path d="M0 0 C-0.4846875 0.3403125 -0.969375 0.680625 -1.46875 1.03125 C-6.06546248 4.35502671 -10.01157005 7.89006977 -13.84765625 12.0703125 C-16.62846136 14.56344812 -19.72801006 16.24991619 -23 18 C-24.11117187 18.61359375 -25.22234375 19.2271875 -26.3671875 19.859375 C-36.98197969 25.58048794 -47.75927539 31.06075778 -58.9375 35.60546875 C-62.08835306 36.65280996 -62.08835306 36.65280996 -63 39 C-65.45571372 39.90520834 -67.86900594 40.69909129 -70.375 41.4375 C-71.46385498 41.76463989 -71.46385498 41.76463989 -72.57470703 42.09838867 C-74.03828333 42.53577743 -75.50296259 42.96949338 -76.96875 43.39941406 C-78.7033555 43.91229021 -80.43066396 44.44973842 -82.15625 44.9921875 C-88.22640337 46.82369929 -93.66961486 47.37076008 -100 47 C-98.89074915 39.71063728 -97.91475759 38.70608649 -90.875 37.0625 C-89.7907373 36.79711426 -89.7907373 36.79711426 -88.68457031 36.52636719 C-84.06256094 35.41571426 -79.437183 34.54836634 -74.75 33.75 C-59.96588788 30.86795496 -46.06912724 23.92662268 -32.81542969 16.95263672 C-31.05373047 16.02819477 -29.28089853 15.1250658 -27.5078125 14.22265625 C-21.04188256 10.86797966 -15.19517736 7.16668487 -9.4375 2.69921875 C-3.24096386 -1.62048193 -3.24096386 -1.62048193 0 0 Z " fill="#183689" transform="translate(428,918)"/>
<path d="M0 0 C2 2 2 2 0.94921875 3.45703125 C-1.31182662 5.2468367 -3.58919212 6.43896245 -6.1875 7.6875 C-7.53908203 8.34298828 -7.53908203 8.34298828 -8.91796875 9.01171875 C-9.94857422 9.50091797 -9.94857422 9.50091797 -11 10 C-4.35627192 12.51904017 1.79930979 12.0089285 8.8125 11.625 C18.69194926 11.17750563 28.54730539 10.87922507 38.4375 10.875 C40.07005737 10.86847412 40.07005737 10.86847412 41.7355957 10.86181641 C42.74968506 10.86358887 43.76377441 10.86536133 44.80859375 10.8671875 C46.13588501 10.86887939 46.13588501 10.86887939 47.48999023 10.87060547 C55.56051171 11.28665219 55.56051171 11.28665219 56 17 C53 16 53 16 53 14 C51.0365077 13.72746689 51.0365077 13.72746689 48.54956055 13.83300781 C47.57822678 13.84672424 46.60689301 13.86044067 45.60612488 13.87457275 C44.54372086 13.900495 43.48131683 13.92641724 42.38671875 13.953125 C40.76598198 13.98354889 40.76598198 13.98354889 39.11250305 14.0145874 C36.81814433 14.06031463 34.52388215 14.11111528 32.22973633 14.16650391 C28.71383442 14.24937926 25.19800346 14.31138984 21.68164062 14.37109375 C19.45830637 14.41801023 17.23499748 14.46614739 15.01171875 14.515625 C13.42722176 14.54236298 13.42722176 14.54236298 11.81071472 14.56964111 C10.33952934 14.60912872 10.33952934 14.60912872 8.83862305 14.64941406 C7.97480515 14.66877014 7.11098724 14.68812622 6.22099304 14.70806885 C3.71484509 14.87121601 3.71484509 14.87121601 1 17 C-4.34545455 17.32727273 -4.34545455 17.32727273 -7 16 C-10.50062636 15.86803922 -13.99491426 15.75201621 -17.49804688 15.74609375 C-22.93894119 15.55999655 -22.93894119 15.55999655 -23.2734375 12.4921875 C-21.62244319 9.26110047 -20.94988106 9.4079801 -17.4375 9.375 C-15.01774887 9.40227755 -15.01774887 9.40227755 -13 9 C-13 8.01 -13 7.02 -13 6 C-11.03696264 5.80036908 -9.072941 5.60676808 -7.10546875 5.45703125 C-3.81827582 4.74348473 -2.21009531 2.40510372 0 0 Z " fill="#1592D0" transform="translate(425,945)"/>
<path d="M0 0 C3.15869003 -0.10257632 6.29575659 -0.13603457 9.45507812 -0.12939453 C10.45969589 -0.13114685 11.46431366 -0.13289917 12.49937439 -0.13470459 C15.84335014 -0.13913102 19.18727365 -0.13618236 22.53125 -0.1328125 C24.84053559 -0.13348531 27.1498211 -0.13445515 29.45910645 -0.13571167 C34.30819368 -0.13718972 39.15726255 -0.13503068 44.00634766 -0.13037109 C50.24138094 -0.12467375 56.47637119 -0.12795219 62.71140289 -0.13394356 C67.4826897 -0.13754631 72.25396619 -0.13641191 77.0252533 -0.13381577 C79.3251089 -0.1331457 81.62496542 -0.13397766 83.92481995 -0.13629532 C87.13154604 -0.13881719 90.33820111 -0.1349879 93.54492188 -0.12939453 C94.98961098 -0.13243088 94.98961098 -0.13243088 96.46348572 -0.13552856 C98.64278057 -0.12843784 100.82184183 -0.07073421 103 0 C103 0.33 103 0.66 103 1 C91.28877803 2.29432719 79.44115961 2.14857701 67.67578125 2.1328125 C65.87216682 2.13348818 64.06855248 2.13446039 62.26493835 2.13571167 C58.521099 2.13717207 54.77728378 2.13508533 51.03344727 2.13037109 C46.24097213 2.12462902 41.44855247 2.12799133 36.65607929 2.13394356 C32.94748007 2.13755552 29.23889404 2.13640843 25.53029442 2.13381577 C23.7620868 2.13315061 21.99387797 2.1339605 20.22567177 2.13629532 C17.7641035 2.13883725 15.30262597 2.13496154 12.84106445 2.12939453 C11.75559326 2.13243088 11.75559326 2.13243088 10.64819336 2.13552856 C6.98571902 2.12019925 3.54318937 1.97734065 0 1 C0 0.67 0 0.34 0 0 Z " fill="#FBF799" transform="translate(848,510)"/>
<path d="M0 0 C-4.35181319 3.12786573 -7.80216558 3.48021656 -13 4 C-13.33 4.33 -13.66 4.66 -14 5 C-16.52088707 5.11321064 -19.01338097 5.16416901 -21.53515625 5.16796875 C-22.28840683 5.17129715 -23.04165741 5.17462555 -23.81773376 5.17805481 C-25.41241849 5.18312569 -27.00711386 5.18546309 -28.60180664 5.18530273 C-31.05567642 5.18749391 -33.50910022 5.20566024 -35.96289062 5.22460938 C-37.50781095 5.2275422 -39.05273343 5.22952774 -40.59765625 5.23046875 C-41.70851341 5.24124702 -41.70851341 5.24124702 -42.84181213 5.25224304 C-44.56324495 5.2444255 -46.28379288 5.13425789 -48 5 C-48 4.34 -48 3.68 -48 3 C-45.04447319 2.69604548 -42.17213731 2.5288649 -39.20703125 2.4375 C-38.30885178 2.40068115 -37.4106723 2.3638623 -36.48527527 2.32592773 C-33.59462918 2.20786225 -30.70373448 2.10258214 -27.8125 2 C-24.02685776 1.86444785 -20.24194858 1.71683221 -16.45703125 1.5625 C-15.15050346 1.52177368 -15.15050346 1.52177368 -13.81758118 1.48022461 C-9.6820384 1.31169733 -3.22144413 -1.61072207 0 0 Z " fill="#FBF799" transform="translate(999,507)"/>
<path d="M0 0 C0.94082428 -0.00307663 1.88164856 -0.00615326 2.85098267 -0.00932312 C3.86872772 -0.0021376 4.88647278 0.00504791 5.93505859 0.01245117 C7.49563492 0.0131385 7.49563492 0.0131385 9.08773804 0.01383972 C11.28848408 0.01686383 13.48922796 0.02475483 15.68994141 0.03710938 C19.07641088 0.05538169 22.46260745 0.05761902 25.84912109 0.05737305 C27.98193598 0.06228737 30.114749 0.06811531 32.24755859 0.07495117 C33.78024887 0.07662041 33.78024887 0.07662041 35.34390259 0.07832336 C36.27842255 0.08470322 37.2129425 0.09108307 38.17578125 0.09765625 C39.00469879 0.10146805 39.83361633 0.10527985 40.68765259 0.10920715 C41.27203094 0.15333237 41.8564093 0.19745758 42.45849609 0.24291992 C42.45849609 0.57291992 42.45849609 0.90291992 42.45849609 1.24291992 C40.92204063 1.40773613 39.37747056 1.49605993 37.83349609 1.55932617 C36.32420532 1.62228882 36.32420532 1.62228882 34.78442383 1.68652344 C33.68686768 1.72575928 32.58931152 1.76499512 31.45849609 1.80541992 C30.34611572 1.84787842 29.23373535 1.89033691 28.08764648 1.93408203 C16.54452743 2.3378353 5.0069029 2.34437234 -6.54150391 2.24291992 C-4.07460029 -0.2239837 -3.3913845 -0.00581907 0 0 Z " fill="#2FA2B5" transform="translate(433.54150390625,958.757080078125)"/>
</svg>
